<?xml version="1.0" encoding="UTF-8" ?>
<!DOCTYPE svg PUBLIC "-//W3C//DTD SVG 1.1//EN" "http://www.w3.org/Graphics/SVG/1.1/DTD/svg11.dtd">
<svg width="441pt" height="196pt" viewBox="0 0 441 196" version="1.1" xmlns="http://www.w3.org/2000/svg">
<g id="#f5f5f5ff">
</g>
<g id="#3e3e3eff">
<path fill="#3e3e3e" opacity="1.00" d=" M 75.10 14.31 C 77.31 13.84 79.52 13.42 81.73 12.98 C 82.36 16.02 83.09 19.29 85.48 21.49 C 89.90 26.12 98.12 26.12 102.53 21.48 C 104.97 19.23 105.69 15.90 106.25 12.78 C 108.54 13.25 110.84 13.68 113.13 14.18 C 112.66 17.02 112.01 20.07 113.18 22.85 C 114.99 28.03 120.56 31.56 126.04 30.68 C 130.52 30.49 133.70 26.85 135.97 23.36 C 137.85 24.65 139.82 25.82 141.56 27.29 C 140.30 30.08 138.21 32.73 138.49 35.96 C 138.40 42.33 144.14 48.10 150.57 47.84 C 150.59 48.02 150.62 48.38 150.64 48.56 C 153.57 47.39 156.63 46.40 159.21 44.51 C 160.67 46.70 162.14 48.88 163.66 51.03 C 160.17 53.28 156.57 56.45 156.33 60.90 C 155.48 66.13 158.64 71.47 163.45 73.53 C 166.43 75.02 169.82 74.32 172.98 74.11 C 173.39 76.32 173.74 78.55 174.18 80.76 C 171.06 81.31 167.73 82.05 165.50 84.49 C 160.88 88.91 160.89 97.11 165.52 101.53 C 167.72 103.91 170.98 104.64 174.03 105.27 C 173.58 107.48 173.15 109.69 172.68 111.90 C 168.13 111.00 163.12 111.22 159.49 114.46 C 156.30 118.18 154.28 123.57 156.72 128.22 C 158.07 131.03 160.69 132.89 163.04 134.82 C 161.80 136.64 160.57 138.48 159.32 140.30 C 156.50 138.58 153.45 136.82 150.01 137.19 C 143.77 137.06 138.39 142.84 138.49 148.98 C 138.35 152.25 140.27 155.02 141.76 157.76 C 139.86 159.03 137.94 160.26 136.06 161.55 C 134.09 158.99 132.08 156.23 129.06 154.83 C 124.19 152.68 118.71 154.82 115.12 158.36 C 112.35 161.90 112.01 166.61 113.16 170.83 C 110.86 171.31 108.55 171.75 106.25 172.21 C 105.69 169.09 104.96 165.74 102.51 163.50 C 98.11 158.90 89.96 158.89 85.53 163.46 C 83.11 165.66 82.37 168.95 81.73 172.02 C 79.51 171.58 77.30 171.15 75.09 170.68 C 75.44 167.56 76.15 164.22 74.78 161.24 C 72.60 155.41 65.31 152.02 59.51 154.48 C 56.27 155.55 54.16 158.38 52.30 161.06 C 50.34 159.78 48.39 158.49 46.44 157.20 C 48.83 154.03 51.01 150.05 49.81 145.97 C 48.82 140.06 42.84 135.54 36.87 136.41 C 33.98 136.30 31.70 138.29 29.43 139.77 C 28.25 138.10 27.03 136.45 25.88 134.75 C 28.54 132.89 31.38 130.85 32.49 127.66 C 34.93 122.04 31.96 114.93 26.41 112.47 C 23.32 110.79 19.68 111.45 16.39 112.04 C 15.88 109.79 15.42 107.53 14.97 105.27 C 18.02 104.64 21.30 103.90 23.50 101.51 C 28.11 97.10 28.11 88.92 23.51 84.50 C 21.28 82.06 17.94 81.32 14.82 80.76 C 15.26 78.55 15.61 76.33 16.02 74.11 C 20.10 74.62 24.74 75.02 28.08 72.10 C 32.63 68.89 34.05 62.42 31.80 57.44 C 30.49 54.60 27.86 52.77 25.37 51.05 C 26.69 49.10 27.99 47.14 29.27 45.17 C 31.07 46.26 32.85 47.38 34.68 48.42 C 40.23 49.50 46.37 47.25 48.80 41.90 C 51.43 37.25 49.71 31.67 46.56 27.76 C 48.47 26.47 50.37 25.19 52.29 23.91 C 54.23 26.66 56.46 29.54 59.82 30.56 C 65.55 32.85 72.57 29.41 74.75 23.76 C 76.16 20.79 75.45 17.43 75.10 14.31 M 85.48 37.80 C 65.61 41.06 48.24 55.91 41.95 75.04 C 37.34 88.58 38.17 103.90 44.33 116.82 C 50.09 129.21 60.61 139.31 73.22 144.59 C 87.61 150.74 104.62 150.43 118.76 143.71 C 130.50 138.25 140.21 128.55 145.68 116.81 C 152.32 102.89 152.74 86.19 146.88 71.93 C 141.69 59.01 131.45 48.20 118.82 42.33 C 108.53 37.40 96.71 35.92 85.48 37.80 Z" />
<path fill="#3e3e3e" opacity="1.00" d=" M 213.54 57.00 C 219.27 57.00 225.01 57.00 230.74 57.00 C 230.74 58.33 230.74 59.66 230.74 60.99 C 228.78 61.00 226.82 61.00 224.86 61.00 C 224.86 68.67 224.86 76.34 224.86 84.01 C 223.03 84.00 221.21 83.99 219.38 83.97 C 219.42 76.32 219.39 68.66 219.40 61.00 C 217.44 61.00 215.49 61.00 213.54 61.00 C 213.53 59.67 213.53 58.33 213.54 57.00 Z" />
<path fill="#3e3e3e" opacity="1.00" d=" M 232.86 57.00 C 234.71 57.00 236.55 57.00 238.40 57.00 C 238.40 60.67 238.40 64.33 238.40 68.00 C 240.51 68.00 242.62 68.00 244.74 68.00 C 244.74 64.33 244.74 60.67 244.74 57.00 C 246.58 57.00 248.42 57.00 250.26 57.00 C 250.26 66.00 250.26 75.00 250.26 84.00 C 248.42 84.00 246.58 84.00 244.74 84.00 C 244.74 80.00 244.73 76.00 244.74 72.00 C 242.62 72.00 240.50 72.00 238.39 72.01 C 238.40 76.01 238.40 80.00 238.40 84.00 C 236.55 84.00 234.71 84.00 232.86 84.00 C 232.86 75.00 232.86 66.00 232.86 57.00 Z" />
<path fill="#3e3e3e" opacity="1.00" d=" M 253.86 57.00 C 258.91 57.00 263.95 57.00 269.00 57.00 C 269.00 58.33 269.00 59.67 269.00 61.00 C 265.80 61.00 262.59 61.00 259.40 61.00 C 259.40 63.33 259.40 65.67 259.40 68.00 C 262.42 68.00 265.44 68.00 268.46 68.00 C 268.46 69.33 268.46 70.67 268.46 72.00 C 265.44 72.00 262.42 72.00 259.40 72.00 C 259.40 74.67 259.40 77.33 259.39 79.99 C 262.73 80.00 266.06 80.00 269.40 80.00 C 269.40 81.33 269.40 82.67 269.40 84.00 C 264.22 84.00 259.04 84.00 253.86 84.00 C 253.86 75.00 253.86 66.00 253.86 57.00 Z" />
<path fill="#3e3e3e" opacity="1.00" d=" M 272.00 57.00 C 274.72 57.00 277.44 57.00 280.16 57.00 C 281.44 63.36 282.67 69.74 284.07 76.08 C 285.41 69.72 286.70 63.36 288.02 57.00 C 290.72 57.00 293.43 57.00 296.14 57.00 C 296.14 66.00 296.14 75.00 296.14 84.00 C 294.46 84.00 292.80 84.00 291.13 84.00 C 291.09 76.95 291.26 69.90 291.03 62.86 C 289.27 69.87 287.77 76.94 286.22 84.00 C 284.77 84.00 283.34 84.00 281.90 84.00 C 280.36 76.90 278.66 69.84 277.28 62.70 C 276.76 69.79 277.09 76.90 277.00 84.00 C 275.33 84.00 273.66 84.00 272.00 84.00 C 272.00 75.00 272.00 66.00 272.00 57.00 Z" />
<path fill="#3e3e3e" opacity="1.00" d=" M 299.86 57.00 C 304.91 57.00 309.95 57.00 315.00 57.00 C 315.00 58.33 315.00 59.67 315.00 61.00 C 311.79 61.00 308.59 61.00 305.39 61.01 C 305.40 63.34 305.39 65.67 305.40 68.00 C 308.42 68.00 311.44 68.00 314.46 68.00 C 314.46 69.33 314.46 70.67 314.46 72.00 C 311.44 72.00 308.42 72.00 305.40 72.00 C 305.40 74.67 305.40 77.33 305.40 80.00 C 308.73 80.00 312.06 80.00 315.40 80.00 C 315.40 81.33 315.40 82.67 315.40 84.00 C 310.22 84.00 305.04 84.00 299.86 84.00 C 299.86 75.00 299.86 66.00 299.86 57.00 Z" />
<path fill="#3e3e3e" opacity="1.00" d=" M 86.26 67.74 C 89.76 68.46 93.49 69.30 96.10 71.94 C 101.00 76.22 102.37 83.83 99.46 89.60 C 98.25 91.96 96.30 93.81 94.61 95.83 C 97.25 94.53 100.11 93.35 102.02 91.01 C 103.96 88.82 104.61 85.86 105.52 83.16 C 108.30 86.21 111.09 89.58 111.69 93.80 C 113.16 101.00 109.41 108.82 102.84 112.12 C 99.64 114.23 96.38 110.95 94.19 108.83 C 90.19 104.79 89.78 98.89 90.07 93.53 C 87.35 95.98 84.75 99.08 85.05 103.00 C 84.71 107.26 87.96 110.35 90.49 113.31 C 86.44 111.85 82.48 109.51 80.38 105.60 C 76.49 99.35 77.76 90.32 83.53 85.65 C 85.94 83.48 89.32 81.62 89.80 78.09 C 90.61 74.22 88.20 70.83 86.26 67.74 Z" />
<path fill="#3e3e3e" opacity="1.00" d=" M 279.75 88.76 C 284.46 87.32 290.26 87.61 294.10 90.97 C 296.72 93.20 296.93 96.81 297.19 99.99 C 294.72 100.00 292.26 100.00 289.80 100.00 C 289.27 97.43 288.59 93.48 285.06 93.96 C 280.46 93.56 279.17 100.16 282.36 102.64 C 287.03 105.70 293.40 106.38 296.90 111.10 C 299.82 116.47 298.62 125.01 292.43 127.54 C 287.49 129.58 281.52 129.73 276.71 127.24 C 272.81 125.00 272.17 120.13 272.10 116.06 C 274.69 116.00 277.29 115.99 279.88 116.00 C 280.06 118.76 280.50 122.69 284.04 122.94 C 288.67 124.36 291.98 118.38 289.16 114.84 C 286.20 111.63 281.40 111.43 277.83 109.14 C 270.18 105.00 271.08 91.13 279.75 88.76 Z" />
<path fill="#3e3e3e" opacity="1.00" d=" M 316.87 95.79 C 319.17 87.50 330.38 85.88 336.79 90.22 C 339.98 92.60 340.47 96.78 340.99 100.43 C 338.49 100.47 335.99 100.46 333.49 100.52 C 332.79 98.13 332.33 95.17 329.78 94.03 C 328.03 93.71 326.00 94.32 325.14 95.97 C 323.17 99.65 323.38 103.98 323.27 108.03 C 323.43 112.34 323.14 116.94 325.12 120.91 C 326.17 123.10 329.43 123.83 331.20 122.09 C 334.10 120.01 333.51 116.13 333.70 113.04 C 331.92 113.01 330.16 113.00 328.39 112.98 C 328.39 110.99 328.39 109.00 328.40 107.00 C 332.68 107.00 336.97 107.00 341.26 107.00 C 341.26 114.00 341.26 121.00 341.26 128.00 C 339.29 128.00 337.32 128.00 335.36 128.00 C 335.39 127.15 335.46 125.44 335.50 124.58 C 331.05 131.69 318.38 130.11 316.63 121.61 C 314.91 113.19 314.67 104.15 316.87 95.79 Z" />
<path fill="#3e3e3e" opacity="1.00" d=" M 216.13 89.00 C 221.73 89.18 227.38 88.56 232.93 89.36 C 237.41 90.07 240.59 94.14 241.29 98.45 C 242.47 105.52 242.53 112.91 240.76 119.87 C 239.68 124.06 236.06 127.30 231.75 127.81 C 226.56 128.27 221.34 127.89 216.13 127.99 C 216.14 115.00 216.14 102.00 216.13 89.00 M 224.00 94.91 C 224.00 103.97 224.00 113.02 224.00 122.08 C 226.57 121.80 229.68 122.62 231.76 120.68 C 234.32 117.76 233.93 113.58 234.16 109.97 C 234.04 105.79 234.55 101.25 232.58 97.42 C 230.86 94.36 226.92 95.13 224.00 94.91 Z" />
<path fill="#3e3e3e" opacity="1.00" d=" M 246.74 89.00 C 254.03 89.00 261.31 89.00 268.60 89.00 C 268.60 91.00 268.60 93.00 268.60 95.00 C 263.93 95.00 259.27 95.00 254.60 95.00 C 254.60 98.00 254.60 101.00 254.60 104.00 C 259.02 104.00 263.44 104.00 267.87 104.00 C 267.86 106.33 267.86 108.67 267.86 111.00 C 263.44 111.00 259.02 111.00 254.60 111.00 C 254.60 114.67 254.60 118.33 254.60 122.00 C 259.49 122.00 264.37 122.00 269.26 122.00 C 269.26 124.00 269.26 126.00 269.26 128.00 C 261.75 128.00 254.25 128.00 246.74 128.00 C 246.74 115.00 246.74 102.00 246.74 89.00 Z" />
<path fill="#3e3e3e" opacity="1.00" d=" M 302.13 89.00 C 304.75 89.00 307.38 89.00 310.00 89.00 C 310.00 102.00 310.00 115.00 310.00 128.00 C 307.38 128.00 304.75 128.00 302.13 128.00 C 302.14 115.00 302.14 102.00 302.13 89.00 Z" />
<path fill="#3e3e3e" opacity="1.00" d=" M 346.74 89.00 C 349.79 89.00 352.84 89.00 355.90 89.00 C 359.07 98.00 362.29 106.98 365.55 115.94 C 365.66 106.96 365.57 97.98 365.60 89.00 C 367.98 89.00 370.36 89.00 372.74 89.00 C 372.73 102.00 372.73 115.00 372.74 128.00 C 369.75 128.00 366.77 128.00 363.79 128.00 C 360.62 118.83 357.19 109.74 354.17 100.52 C 353.81 109.68 354.08 118.84 354.00 128.00 C 351.58 128.00 349.15 128.00 346.74 128.00 C 346.74 115.00 346.74 102.00 346.74 89.00 Z" />
<path fill="#3e3e3e" opacity="1.00" d=" M 378.74 89.00 C 386.03 89.00 393.31 89.00 400.60 89.00 C 400.60 91.00 400.60 93.00 400.60 95.00 C 395.93 95.00 391.27 95.00 386.60 95.00 C 386.60 98.00 386.60 101.00 386.60 104.00 C 391.02 104.00 395.44 104.00 399.87 104.00 C 399.86 106.33 399.86 108.67 399.86 111.00 C 395.44 111.00 391.02 111.00 386.60 111.00 C 386.60 114.67 386.60 118.33 386.60 122.00 C 391.49 122.00 396.37 122.00 401.26 122.00 C 401.26 124.00 401.26 126.00 401.26 128.00 C 393.75 128.00 386.25 128.00 378.74 128.00 C 378.74 115.00 378.74 102.00 378.74 89.00 Z" />
<path fill="#3e3e3e" opacity="1.00" d=" M 404.74 89.00 C 409.86 89.05 414.98 88.91 420.10 89.02 C 423.61 89.05 427.44 90.68 428.89 94.08 C 430.93 99.30 429.97 106.97 423.84 108.85 C 425.86 109.75 428.37 110.66 428.84 113.14 C 430.05 118.01 429.05 123.20 430.68 128.01 C 427.94 128.00 425.20 128.00 422.46 128.01 C 421.36 123.64 421.98 119.09 421.21 114.69 C 420.04 111.01 415.51 112.21 412.60 111.93 C 412.60 117.28 412.60 122.64 412.60 128.00 C 409.98 128.00 407.36 128.00 404.74 128.00 C 404.74 115.00 404.74 102.00 404.74 89.00 M 412.60 94.91 C 412.60 98.64 412.60 102.37 412.60 106.10 C 415.40 105.88 418.99 106.56 420.97 104.03 C 422.07 101.91 422.35 99.04 421.06 96.96 C 419.12 94.28 415.42 95.20 412.60 94.91 Z" />
</g>
<g id="#ff7100ff">
<path fill="#ff7100" opacity="1.00" d=" M 86.51 44.73 C 96.52 43.03 107.07 44.37 116.22 48.83 C 129.43 55.12 139.52 67.63 142.74 81.93 C 145.45 93.64 143.73 106.33 137.82 116.82 C 130.25 130.54 115.78 140.25 100.13 141.71 C 85.68 143.33 70.59 138.08 60.43 127.65 C 51.22 118.68 45.94 105.86 46.02 93.02 C 45.93 80.18 51.19 67.35 60.40 58.38 C 67.37 51.22 76.70 46.48 86.51 44.73 M 86.26 67.74 C 88.20 70.83 90.61 74.22 89.80 78.09 C 89.32 81.62 85.94 83.48 83.53 85.65 C 77.76 90.32 76.49 99.35 80.38 105.60 C 82.48 109.51 86.44 111.85 90.49 113.31 C 87.96 110.35 84.71 107.26 85.05 103.00 C 84.75 99.08 87.35 95.98 90.07 93.53 C 89.78 98.89 90.19 104.79 94.19 108.83 C 96.38 110.95 99.64 114.23 102.84 112.12 C 109.41 108.82 113.16 101.00 111.69 93.80 C 111.09 89.58 108.30 86.21 105.52 83.16 C 104.61 85.86 103.96 88.82 102.02 91.01 C 100.11 93.35 97.25 94.53 94.61 95.83 C 96.30 93.81 98.25 91.96 99.46 89.60 C 102.37 83.83 101.00 76.22 96.10 71.94 C 93.49 69.30 89.76 68.46 86.26 67.74 Z" />
</g>
<g id="#999999ff">
<path fill="#999999" opacity="1.00" d=" M 156.72 128.22 C 154.28 123.57 156.30 118.18 159.49 114.46 C 160.06 116.84 160.72 119.78 163.48 120.48 C 166.36 121.60 169.01 119.82 171.19 118.14 C 171.61 118.31 172.44 118.64 172.85 118.81 C 172.51 121.59 171.34 125.00 173.71 127.23 C 175.82 129.76 179.44 128.44 182.23 128.26 C 182.39 128.66 182.71 129.46 182.87 129.86 C 180.98 132.14 179.21 135.23 180.84 138.18 C 182.08 141.65 186.81 140.31 188.70 142.97 C 186.51 144.98 182.75 146.41 183.06 150.00 C 182.76 153.33 185.93 155.05 188.38 156.45 C 188.31 156.90 188.16 157.80 188.08 158.25 C 185.43 158.73 181.96 158.89 180.80 161.83 C 179.11 165.37 182.05 168.73 183.19 171.96 C 181.35 171.53 179.53 171.00 177.72 170.45 C 176.01 171.41 173.78 171.92 172.84 173.82 C 171.55 176.12 172.65 178.77 173.05 181.16 C 172.58 181.33 171.65 181.65 171.19 181.82 C 168.88 179.89 165.74 178.18 162.76 179.75 C 159.89 181.03 159.75 184.45 159.35 187.13 C 158.86 187.18 157.89 187.28 157.40 187.32 C 156.02 184.89 154.32 181.76 151.02 182.06 C 147.44 181.73 146.01 185.48 143.99 187.66 C 141.35 186.02 142.80 181.64 139.87 180.11 C 136.87 178.04 133.27 179.77 130.84 181.86 C 130.43 181.71 129.60 181.39 129.19 181.24 C 129.65 178.76 131.11 175.98 129.37 173.69 C 128.36 171.76 126.08 171.31 124.25 170.55 C 122.58 170.93 120.98 171.63 119.27 171.83 C 119.26 168.45 123.08 165.90 121.51 162.35 C 120.77 159.45 117.64 158.84 115.12 158.36 C 118.71 154.82 124.19 152.68 129.06 154.83 C 127.40 154.65 125.74 154.48 124.07 154.35 C 125.82 160.89 128.95 167.33 134.55 171.40 C 142.10 177.33 152.90 178.65 161.68 174.79 C 168.19 172.02 173.50 166.55 176.09 159.95 C 179.95 150.46 177.78 138.84 170.63 131.48 C 166.81 127.16 161.35 124.89 155.98 123.17 C 156.20 124.86 156.44 126.54 156.72 128.22 Z" />
<path fill="#999999" opacity="1.00" d=" M 149.29 146.41 C 152.14 145.02 155.70 147.62 154.84 150.79 C 154.56 154.23 149.36 155.00 147.66 152.25 C 146.57 150.33 147.00 147.24 149.29 146.41 Z" />
</g>
</svg>
